<?xml version="1.0" encoding="UTF-8" standalone="no"?>
<svg
   viewBox="0 0 558.93367 425.00023"
   version="1.1"
   id="svg77"
   sodipodi:docname="NFTChecker.svg"
   width="558.93365"
   height="425.00024"
   inkscape:version="1.1.2 (76b9e6a115, 2022-02-25)"
   xmlns:inkscape="http://www.inkscape.org/namespaces/inkscape"
   xmlns:sodipodi="http://sodipodi.sourceforge.net/DTD/sodipodi-0.dtd"
   xmlns="http://www.w3.org/2000/svg"
   xmlns:svg="http://www.w3.org/2000/svg">
  <sodipodi:namedview
     id="namedview79"
     pagecolor="#ffffff"
     bordercolor="#666666"
     borderopacity="1.0"
     inkscape:pageshadow="2"
     inkscape:pageopacity="0.0"
     inkscape:pagecheckerboard="0"
     showgrid="false"
     inkscape:zoom="0.82929952"
     inkscape:cx="175.44928"
     inkscape:cy="256.24035"
     inkscape:window-width="1366"
     inkscape:window-height="704"
     inkscape:window-x="0"
     inkscape:window-y="27"
     inkscape:window-maximized="1"
     inkscape:current-layer="svg77" />
  <defs
     id="defs63">
    <style
       id="style61">.cls-1{fill:#231f20;}.cls-2{fill:#6abd45;}</style>
  </defs>
  <g
     id="Layer_2"
     data-name="Layer 2"
     transform="translate(-831.39637,2.5631871e-4)">
    <g
       id="Layer_1-2"
       data-name="Layer 1">
      <path
         class="cls-2"
         d="M 1282.49,47.75 A 53.84,53.84 0 0 0 1262.18,11.59 54.45,54.45 0 0 0 1228.7,0 v 0 a 53.9,53.9 0 0 0 -42.62,20.69 l -207.6,254.53 -46.29,-90.4 c -5.39,-7.53 -11.88,-15 -20.21,-19.66 a 54.15,54.15 0 0 0 -54.06,0.75 54.17,54.17 0 0 0 -18.92,74.26 l 86.64,158.31 a 54.18,54.18 0 0 0 43.07,26.39 c 1.16,0.07 2.35,0.11 3.53,0.11 a 53.86,53.86 0 0 0 42.59,-20.69 L 1271.28,87.67 a 53.8,53.8 0 0 0 11.21,-39.92 z"
         id="path71" />
      <path
         class="cls-1"
         d="m 1169.16,134 h 113.49 v 51.79 c 12.81,-31.42 35.51,-51.79 74.5,-51.79 h 33.18 v 118.74 h -69.84 c -33.18,0 -37.25,3.49 -37.25,40.15 V 425 h -114.08 z"
         id="path73" />
    </g>
  </g>
</svg>
